<svg width="61" height="60" viewBox="0 0 61 60" fill="none" xmlns="http://www.w3.org/2000/svg">
<rect x="0.5" width="60" height="60" rx="30" fill="#CE4257"/>
<path d="M15.9222 17.3636H21.403L23.8466 34.8531H23.9165L26.3601 17.3636H31.8408L31.8408 41.8H28.2103V23.2982H28.1405L25.3477 41.8H22.1361L19.3433 23.2982H19.2735L19.2735 41.8H15.9222L15.9222 17.3636ZM39.6984 42.1491C37.8366 42.1491 36.4286 41.6255 35.4744 40.5782C34.5202 39.5077 34.0431 37.9833 34.0431 36.0051V34.6087H37.6737V36.2844C37.6737 37.8669 38.337 38.6582 39.6635 38.6582C40.3152 38.6582 40.8039 38.472 41.1297 38.0997C41.4788 37.704 41.6533 37.0757 41.6533 36.2146C41.6533 35.1906 41.4206 34.2946 40.9552 33.5266C40.4897 32.7353 39.6286 31.7927 38.3719 30.6989C36.7893 29.3025 35.6839 28.0458 35.0555 26.9287C34.4271 25.7883 34.1129 24.5083 34.1129 23.0887C34.1129 21.1571 34.6017 19.6676 35.5791 18.6203C36.5566 17.5498 37.9762 17.0145 39.8381 17.0145C41.6766 17.0145 43.0614 17.5498 43.9923 18.6203C44.9464 19.6676 45.4235 21.1803 45.4235 23.1585V24.1709H41.793V22.9142C41.793 22.0763 41.6301 21.4712 41.3043 21.0989C40.9784 20.7032 40.5013 20.5054 39.873 20.5054C38.593 20.5054 37.953 21.2851 37.953 22.8443C37.953 23.7287 38.1857 24.5549 38.6512 25.3229C39.1399 26.0909 40.0126 27.0218 41.2693 28.1156C42.8752 29.512 43.9806 30.7804 44.5857 31.9207C45.1908 33.0611 45.4934 34.3993 45.4934 35.9353C45.4934 37.9368 44.993 39.4728 43.9923 40.5433C43.0148 41.6139 41.5835 42.1491 39.6984 42.1491Z" fill="#EDF2EF"/>
</svg>
